<svg width="513" height="513" viewBox="0 0 513 513" fill="none" xmlns="http://www.w3.org/2000/svg">
<rect x="0.842773" y="0.0581055" width="512" height="512" fill="#21AA60"/>
<path fill-rule="evenodd" clip-rule="evenodd" d="M264.572 145.899C261.081 140.047 252.604 140.047 249.113 145.899L152.088 308.555C148.509 314.555 152.832 322.166 159.817 322.166H185.432C197.339 322.166 208.476 316.279 215.181 306.439L250.232 255.005C253.408 250.345 260.278 250.345 263.454 255.005L298.504 306.439C305.21 316.279 316.346 322.166 328.253 322.166H353.868C360.853 322.166 365.176 314.555 361.597 308.555L264.572 145.899Z" fill="#ACFFB4"/>
<path fill-rule="evenodd" clip-rule="evenodd" d="M264.572 170.119C261.081 164.267 252.604 164.267 249.113 170.119L152.088 332.776C148.509 338.775 152.832 346.386 159.817 346.386H185.432C197.339 346.386 208.476 340.499 215.181 330.659L250.232 279.225C253.408 274.566 260.278 274.566 263.454 279.225L298.504 330.659C305.21 340.499 316.346 346.386 328.253 346.386H353.868C360.853 346.386 365.176 338.775 361.597 332.776L264.572 170.119Z" fill="#ACFFB4" fill-opacity="0.31"/>
<path fill-rule="evenodd" clip-rule="evenodd" d="M264.572 194.34C261.081 188.487 252.604 188.487 249.113 194.34L152.088 356.996C148.509 362.995 152.832 370.606 159.817 370.606H185.432C197.339 370.606 208.476 364.719 215.181 354.88L250.232 303.446C253.408 298.786 260.278 298.786 263.454 303.446L298.504 354.88C305.21 364.719 316.346 370.606 328.253 370.606H353.868C360.853 370.606 365.176 362.995 361.597 356.996L264.572 194.34Z" fill="#ACFFB4" fill-opacity="0.31"/>
</svg>
